<?xml version="1.0" encoding="utf-8"?>
<!-- Generator: Adobe Illustrator 23.0.1, SVG Export Plug-In . SVG Version: 6.00 Build 0)  -->
<svg version="1.1" id="Calque_1" xmlns="http://www.w3.org/2000/svg" xmlns:xlink="http://www.w3.org/1999/xlink" x="0px" y="0px"
	 viewBox="0 0 249.9 252" style="enable-background:new 0 0 249.9 252;" xml:space="preserve">
<style type="text/css">
	.st0{fill:#13110C;}
	.st1{fill:#FFFFFF;}
	.st2{fill:#E31014;}
</style>
<g>
	<path class="st0" d="M16.8,184.9c-4,0-8,0-12,0c0-44,0-88,0-132c4,0,8,0,12,0c0.2,0.2,0.4,0.5,0.7,0.7c1.2,2.3,0.9,4.9,0.9,7.4
		c0,38.6,0,77.2,0,115.8c0,2.5,0.3,5-0.9,7.4C17.3,184.4,17.1,184.6,16.8,184.9z"/>
	<path class="st0" d="M88.8,232.9c0,4,0,8,0,12c-4,0-8,0-12,0c0-4,0-8,0-12c0.2-0.2,0.4-0.4,0.7-0.6
		C81.4,231.3,85.2,230.6,88.8,232.9z"/>
	<path class="st0" d="M148.8,244.9c0-4,0-8,0-12c3.7-2.3,7.5-1.6,11.3-0.6c0.2,0.2,0.4,0.4,0.7,0.6c0,4,0,8,0,12
		C156.8,244.9,152.8,244.9,148.8,244.9z"/>
	<path class="st0" d="M232.8,52.9c3.8,0,7.7,0,11.5,0c0.8,4.4,1.1,102,0.3,120c-3.9,0-7.9,0-11.8,0c-0.2-0.2-0.4-0.5-0.7-0.7
		c-1.2-2.3-0.9-4.9-0.9-7.4c0-34.6,0-69.2,0-103.8c0-2.5-0.3-5,0.9-7.4C232.4,53.4,232.6,53.1,232.8,52.9z"/>
	<path class="st0" d="M184.8,76.9c7.8,0,15.6,0,23.5,0c0.1-0.1,0.3-0.2,0.4-0.3c0.1-0.1,0.2-0.3,0.2-0.4c0-7.6,0-15.3,0-23.2
		c4.1,0,8,0,12,0c0.2,0.2,0.4,0.5,0.7,0.7c1.9,7,0.7,14.2,0.9,21.3c0.1,4.6,0.8,9.3-1.6,14.9c-11.7,1-23.8,0.8-35.7,0.1
		c-2.4-4.6-2.3-8.5-1-12.4C184.4,77.4,184.6,77.1,184.8,76.9z"/>
	<path class="st0" d="M52.8,16.9c0-3.8,0-7.7,0-11.5c4.2-0.7,33.1-0.9,48-0.3c0,3.9,0,7.9,0,11.8c-0.2,0.2-0.5,0.4-0.7,0.6
		c-1.4,0.8-2.9,0.9-4.4,0.9c-12.6,0.1-25.2,0.1-37.9,0c-1.5,0-3-0.1-4.4-0.9C53.3,17.3,53.1,17.1,52.8,16.9z"/>
	<path class="st0" d="M196.8,220.9c-8,0-16,0-24,0c-0.2-0.2-0.4-0.5-0.7-0.7c-1.7-7.7-1.1-15.4-0.1-23.7c8.5-1.8,16.6-1.5,25.3-0.3
		c1.5,8.3,1.7,16.1,0.2,24C197.3,220.4,197.1,220.6,196.8,220.9z"/>
	<path class="st0" d="M16.8,52.9c0-11.9,0-23.8,0-36c4.1,0,8.1,0,12,0c0.2,0.2,0.4,0.5,0.7,0.7c1.7,4.7,0.7,9.5,0.9,14.2
		c0.2,5.3,0.1,10.6,0,15.9c0,1.8-0.2,3.6-1.8,5.7C25,54.7,20.9,55.4,16.8,52.9z"/>
	<path class="st0" d="M232.8,172.9c0,11.9,0,23.8,0,36c-4.1,0-8.1,0-12,0c-0.2-0.2-0.4-0.5-0.7-0.7c-1.7-4.7-0.7-9.5-0.9-14.2
		c-0.2-5.3-0.1-10.6,0-15.9c0-1.8,0.2-3.6,1.8-5.7C224.7,171.1,228.8,170.4,232.8,172.9z"/>
	<path class="st0" d="M160.8,64.9c7.9,0,15.8,0,24,0c0,4.1,0,8.1,0,12c-2.4,2-5.3,1.6-8,1.5c-5.4-0.2-10.8,1-16.1-1.1
		c-1.9-4-1.9-7.8-0.6-11.7C160.4,65.4,160.6,65.1,160.8,64.9z"/>
	<path class="st0" d="M124.8,16.9c3.9,0,7.9,0,12,0c0,8.2,0,16.1,0,24c-0.2,0.2-0.5,0.4-0.7,0.6c-3.7,1.3-7.4,1.2-11.8-0.4
		c-1.6-7.7-1.6-15.6-0.2-23.5C124.4,17.4,124.6,17.1,124.8,16.9z"/>
	<path class="st0" d="M28.8,16.9c0-3.8,0-7.6,0-11.9c1.9,0,3.8-0.1,5.8-0.1c2,0,3.9,0,6.2,0c0,4.1,0,8.1,0,12
		c-0.2,0.2-0.4,0.4-0.7,0.6C36.3,18.6,32.5,19.1,28.8,16.9z"/>
	<path class="st0" d="M148.8,52.9c3.9,0,7.8,0,12,0c0,4.2,0,8.1,0,12c-4,2.5-8.1,1.7-12.2,0.4c-1.8-4-1.8-7.8-0.5-11.7
		C148.4,53.4,148.6,53.1,148.8,52.9z"/>
	<path class="st0" d="M220.8,52.9c0-3.8,0-7.6,0-11.9c1.9,0,3.8-0.1,5.8-0.1c2,0,3.9,0,6.2,0c0,4.1,0,8.1,0,12
		C228.8,55.1,224.8,55.1,220.8,52.9z"/>
	<path class="st0" d="M136.8,40.9c3.9,0,7.8,0,12,0c0,4.2,0,8.1,0,12c-4,2.5-8,1.8-12.3,0.3C135,48.9,134.3,44.9,136.8,40.9z"/>
	<path class="st0" d="M100.8,16.9c4,0,8,0,12,0c0.2,0.3,0.4,0.5,0.7,0.8c1.4,3.7,1.1,7.4-0.2,11.3c-4.2,2.2-8.3,1.9-12.8,0.4
		C99,25,98.3,21,100.8,16.9z"/>
	<path class="st0" d="M40.8,16.9c4,0,8,0,12,0c2.5,3.9,1.8,7.9,0.5,12.1c-4.2,2-8.3,1.9-12.7,0.2C38.9,25,38.3,21,40.8,16.9z"/>
	<path class="st0" d="M112.8,16.9c0-3.8,0-7.6,0-11.9c1.9,0,3.8-0.1,5.8-0.1c2,0,3.9,0,6.2,0c0,4.1,0,8.1,0,12
		C120.8,19.1,116.8,19.1,112.8,16.9z"/>
	<path class="st0" d="M220.8,208.9c0,3.9,0,7.8,0,12c-4.2,0-8.1,0-12,0c-0.2-0.2-0.4-0.5-0.7-0.7c-1.4-3.9-1.2-7.6,0.4-11.6
		C212.8,207.2,216.8,206.4,220.8,208.9z"/>
	<path class="st0" d="M172.8,220.9c0,3.9,0,7.8,0,12c-4.2,0-8.1,0-12,0c-2.5-4-1.8-8-0.3-12.3C164.8,219,168.8,218.4,172.8,220.9z"
		/>
	<path class="st0" d="M208.8,220.9c0,3.8,0,7.6,0,11.9c-1.9,0-3.8,0.1-5.8,0.1c-2,0-3.9,0-6.2,0c0-4.1,0-8.1,0-12
		C200.8,218.6,204.8,218.6,208.8,220.9z"/>
	<path class="st0" d="M76.8,232.9c-3.8,0-7.7,0-11.8,0c-0.4-7.9,0-15.8-0.3-24c-4,0-8,0-11.9,0c-0.2-0.3-0.4-0.5-0.7-0.8
		c-1.3-3.7-1.3-7.4,0.6-11.8c7.9-1.7,16-1.4,23.4-0.3c2,2.1,2.2,3.9,2.2,5.8c0.1,8.6,0.1,17.3,0,25.9
		C78.4,229.6,78.2,231.4,76.8,232.9z"/>
	<path class="st0" d="M28.8,220.9c-3.9,0-7.9,0-12,0c0-12.2,0-24.1,0-36c3.9-2.5,7.8-1.8,12.8-0.2c1.2,11.7,1.5,23.6-0.1,35.5
		C29.3,220.4,29.1,220.6,28.8,220.9z"/>
	<path class="st0" d="M52.8,208.9c0,3.9,0,7.8,0,12c-4.2,0-8.1,0-12,0c-0.2-0.2-0.4-0.5-0.7-0.7c-1.4-3.9-1.2-7.6,0.4-11.6
		C44.8,207.2,48.8,206.4,52.8,208.9z"/>
	<path class="st0" d="M40.8,220.9c0,3.8,0,7.6,0,11.9c-1.9,0-3.8,0.1-5.8,0.1c-2,0-3.9,0-6.2,0c0-4.1,0-8.1,0-12
		C32.8,218.6,36.8,218.6,40.8,220.9z"/>
	<path class="st1" d="M40.8,220.9c-4,0-8,0-12,0c0-11.9,0-23.8,0-36c-4.1,0-8.1,0-12,0c0-44,0-88,0-132c3.9,0,7.9,0,12,0
		c0-12.2,0-24.1,0-36c4,0,8,0,12,0c0,3.8,0,7.6,0,11.9c1.9,0,3.8,0.1,5.8,0.1c2,0,3.9,0,6.2,0c0-4.1,0-8.1,0-12c16,0,32,0,48,0
		c0,3.8,0,7.6,0,11.9c1.9,0,3.8,0.1,5.8,0.1c2,0,3.9,0,6.2,0c0-4.1,0-8.1,0-12c4,0,8,0,12,0c0,7.9,0,15.8,0,24c4.1,0,8.1,0,12,0
		c0,3.9,0,7.8,0,12c4.2,0,8.1,0,12,0c0,3.9,0,7.8,0,12c4.2,0,8.1,0,12,0c0,3.9,0,7.9,0,12c8.2,0,16.1,0,24,0c0,3.8,0,7.7,0,11.5
		c0.1,0.1,0.2,0.2,0.3,0.3c0.1,0.1,0.3,0.2,0.4,0.2c11.6,0,23.3,0,35.2,0c0-12.1,0-24.1,0-36c4,0,8,0,12,0c0,40,0,80,0,120
		c-3.9,0-7.9,0-12,0c0,12.2,0,24.1,0,36c-3.9,0-7.8,0-12,0c0,4.2,0,8.1,0,12c-4,0-8,0-12,0c0-7.8,0-15.6,0-23.5
		c-0.1-0.1-0.2-0.3-0.3-0.4c-0.1-0.1-0.3-0.2-0.4-0.2c-7.6,0-15.3,0-23.2,0c0,8.1,0,16.1,0,24c-3.9,0-7.8,0-12,0c0,4.2,0,8.1,0,12
		c-4,0-8,0-12,0c-1.7-1.9-1.5-4.3-1.5-6.6c0-7,0-14,0-21c0-2,0.3-4-1.5-6.7c-13.8-0.1-28.1-0.3-42.4,0.2c-1.6,5.3-0.7,9.9-0.9,14.5
		c-0.1,2.6,0.4,5.4-1.6,7.6c-2.7,2.5-6.5,0.6-9.6,2.2c-2.1,2.9,0.2,7-2.4,9.8c-4,0-8,0-12,0c0-11.8,0-23.6,0-35.5
		c-0.1-0.1-0.2-0.3-0.3-0.4c-0.1-0.1-0.3-0.2-0.4-0.2c-7.6,0-15.3,0-23.3,0c0,4.1,0,8,0,12c-3.9,0-7.8,0-12,0
		C40.8,213.1,40.8,217,40.8,220.9z"/>
	<path class="st0" d="M100.8,220.9c0-7.8,0-15.7,0-23.5c4.2-0.8,33.5-1,48-0.3c0,11.9,0,23.9,0,35.8c-3.8,0-7.7,0-12,0
		c-0.1-7.9,0-15.8,0-23.8c-7.9,0-15.7,0-23.9,0c0,1.7-0.1,3.6-0.1,5.6c0,2,0,3.9,0,6.3C108.7,220.9,104.8,220.9,100.8,220.9z"/>
	<circle class="st0" cx="94.8" cy="226.9" r="8.5"/>
	<path class="st0" d="M40.8,100.9c3.8,0,7.7,0,11.5,0c0.1-0.1,0.3-0.2,0.4-0.3c0.1-0.1,0.2-0.3,0.2-0.4c0-7.6,0-15.3,0-23.1
		c7.9,0,15.7,0,23.9,0c0,1.7,0.1,3.6,0.1,5.6c0,2,0,3.9,0,6.1c-3.9,0-7.7,0-11.9,0c0,2.1-0.1,4-0.1,5.9c0,2,0,3.9,0,6.2
		c8.1,0,16.1,0,24,0c0,3.8,0,7.7,0,11.5c-4.2,0.7-33.1,0.9-48,0.3C40.8,108.8,40.8,104.8,40.8,100.9z"/>
	<path class="st0" d="M40.7,100.7c-3.8,0-7.7,0-11.8,0c0-3.9,0-7.7,0-11.6c3.8,0,7.7,0,11.8,0C40.7,93,40.7,97,40.7,100.7z"/>
	<path class="st0" d="M89,100.7C89,97,89,93,89,89c3.9,0,7.7,0,11.6,0c0,3.8,0,7.7,0,11.8C96.7,100.7,92.8,100.7,89,100.7z"/>
	<path class="st2" d="M88.7,64.8c-3.9,0-7.7,0-11.7,0c0-3.8,0-7.6,0-11.8c1.7,0,3.6-0.1,5.6-0.1c2,0,3.9,0,6.1,0
		C88.7,56.8,88.7,60.6,88.7,64.8z"/>
	<path class="st2" d="M52.7,64.8c-3.9,0-7.7,0-11.7,0c0-3.8,0-7.6,0-11.8c1.7,0,3.7-0.1,5.6-0.1c2,0,3.9,0,6.1,0
		C52.7,56.8,52.7,60.6,52.7,64.8z"/>
</g>
</svg>
