<?xml version="1.0" encoding="utf-8"?>
<!-- Generator: Adobe Illustrator 23.0.1, SVG Export Plug-In . SVG Version: 6.00 Build 0)  -->
<svg version="1.1" id="Calque_1" xmlns="http://www.w3.org/2000/svg" xmlns:xlink="http://www.w3.org/1999/xlink" x="0px" y="0px"
	 viewBox="0 0 16 16" style="enable-background:new 0 0 16 16;" xml:space="preserve">
<style type="text/css">
	.st0{fill:#12110C;}
	.st1{fill:#FFFFFF;}
	.st2{fill:#E21014;}
	.st3{fill:#E20D13;}
</style>
<g>
	<path class="st0" d="M1,11.9c-0.3,0-0.5,0-0.8,0c0-2.8,0-5.7,0-8.5c0.3,0,0.5,0,0.8,0c0,0,0,0,0,0c0.1,0.2,0.1,0.3,0.1,0.5
		c0,2.5,0,5,0,7.5C1.1,11.5,1.1,11.7,1,11.9C1.1,11.8,1,11.9,1,11.9z"/>
	<path class="st0" d="M5.7,15c0,0.3,0,0.5,0,0.8c-0.3,0-0.5,0-0.8,0c0-0.3,0-0.5,0-0.8c0,0,0,0,0,0C5.2,14.9,5.4,14.8,5.7,15z"/>
	<path class="st0" d="M9.5,15.8c0-0.3,0-0.5,0-0.8c0.2-0.2,0.5-0.1,0.7,0c0,0,0,0,0,0c0,0.3,0,0.5,0,0.8
		C10.1,15.8,9.8,15.8,9.5,15.8z"/>
	<path class="st0" d="M15,3.4c0.2,0,0.5,0,0.7,0c0,0.3,0.1,6.6,0,7.7c-0.3,0-0.5,0-0.8,0c0,0,0,0,0,0c-0.1-0.2-0.1-0.3-0.1-0.5
		c0-2.2,0-4.5,0-6.7C14.9,3.7,14.8,3.6,15,3.4C14.9,3.4,14.9,3.4,15,3.4z"/>
	<path class="st0" d="M11.9,4.9c0.5,0,1,0,1.5,0c0,0,0,0,0,0c0,0,0,0,0,0c0-0.5,0-1,0-1.5c0.3,0,0.5,0,0.8,0c0,0,0,0,0,0
		c0.1,0.5,0,0.9,0.1,1.4c0,0.3,0.1,0.6-0.1,1c-0.8,0.1-1.5,0.1-2.3,0C11.7,5.5,11.7,5.2,11.9,4.9C11.8,4.9,11.8,4.9,11.9,4.9z"/>
	<path class="st0" d="M3.3,1c0-0.2,0-0.5,0-0.7c0.3,0,2.1-0.1,3.1,0c0,0.3,0,0.5,0,0.8c0,0,0,0,0,0c-0.1,0-0.2,0.1-0.3,0.1
		c-0.8,0-1.6,0-2.4,0C3.6,1.1,3.5,1.1,3.3,1C3.4,1.1,3.4,1.1,3.3,1z"/>
	<path class="st0" d="M12.6,14.2c-0.5,0-1,0-1.5,0c0,0,0,0,0,0c-0.1-0.5-0.1-1,0-1.5c0.6-0.1,1.1-0.1,1.6,0
		C12.8,13.1,12.8,13.6,12.6,14.2C12.7,14.2,12.7,14.2,12.6,14.2z"/>
	<path class="st0" d="M1,3.4C1,2.6,1,1.8,1,1c0.3,0,0.5,0,0.8,0c0,0,0,0,0,0C2,1.4,1.9,1.7,1.9,2c0,0.3,0,0.7,0,1
		c0,0.1,0,0.2-0.1,0.4C1.5,3.5,1.3,3.5,1,3.4z"/>
	<path class="st0" d="M15,11.1c0,0.8,0,1.5,0,2.3c-0.3,0-0.5,0-0.8,0c0,0,0,0,0,0c-0.1-0.3,0-0.6-0.1-0.9c0-0.3,0-0.7,0-1
		c0-0.1,0-0.2,0.1-0.4C14.4,11,14.7,10.9,15,11.1z"/>
	<path class="st0" d="M10.3,4.1c0.5,0,1,0,1.5,0c0,0.3,0,0.5,0,0.8C11.7,5,11.5,5,11.3,5c-0.3,0-0.7,0.1-1-0.1
		C10.2,4.7,10.2,4.4,10.3,4.1C10.3,4.2,10.3,4.1,10.3,4.1z"/>
	<path class="st0" d="M8,1c0.3,0,0.5,0,0.8,0c0,0.5,0,1,0,1.5c0,0,0,0,0,0C8.5,2.7,8.2,2.7,8,2.6C7.9,2.1,7.9,1.6,8,1
		C8,1.1,8,1.1,8,1z"/>
	<path class="st0" d="M1.8,1c0-0.2,0-0.5,0-0.8c0.1,0,0.2,0,0.4,0c0.1,0,0.3,0,0.4,0c0,0.3,0,0.5,0,0.8c0,0,0,0,0,0
		C2.3,1.1,2,1.2,1.8,1z"/>
	<path class="st0" d="M9.5,3.4c0.3,0,0.5,0,0.8,0c0,0.3,0,0.5,0,0.8c-0.3,0.2-0.5,0.1-0.8,0C9.4,3.9,9.4,3.7,9.5,3.4
		C9.5,3.4,9.5,3.4,9.5,3.4z"/>
	<path class="st0" d="M14.2,3.4c0-0.2,0-0.5,0-0.8c0.1,0,0.2,0,0.4,0c0.1,0,0.3,0,0.4,0c0,0.3,0,0.5,0,0.8
		C14.7,3.5,14.4,3.5,14.2,3.4z"/>
	<path class="st0" d="M8.8,2.6c0.3,0,0.5,0,0.8,0c0,0.3,0,0.5,0,0.8C9.3,3.5,9,3.5,8.7,3.4C8.6,3.1,8.6,2.8,8.8,2.6z"/>
	<path class="st0" d="M6.4,1C6.7,1,7,1,7.2,1c0,0,0,0,0,0c0.1,0.2,0.1,0.5,0,0.7C7,2,6.7,1.9,6.4,1.8C6.3,1.6,6.3,1.3,6.4,1z"/>
	<path class="st0" d="M2.6,1c0.3,0,0.5,0,0.8,0c0.2,0.3,0.1,0.5,0,0.8c-0.3,0.1-0.5,0.1-0.8,0C2.4,1.6,2.4,1.3,2.6,1z"/>
	<path class="st0" d="M7.2,1c0-0.2,0-0.5,0-0.8c0.1,0,0.2,0,0.4,0c0.1,0,0.3,0,0.4,0C8,0.5,8,0.8,8,1C7.7,1.2,7.5,1.2,7.2,1z"/>
	<path class="st0" d="M14.2,13.4c0,0.3,0,0.5,0,0.8c-0.3,0-0.5,0-0.8,0c0,0,0,0,0,0c-0.1-0.2-0.1-0.5,0-0.8
		C13.7,13.3,13.9,13.3,14.2,13.4z"/>
	<path class="st0" d="M11.1,14.2c0,0.3,0,0.5,0,0.8c-0.3,0-0.5,0-0.8,0c-0.2-0.3-0.1-0.5,0-0.8C10.6,14.1,10.8,14,11.1,14.2z"/>
	<path class="st0" d="M13.4,14.2c0,0.2,0,0.5,0,0.8c-0.1,0-0.2,0-0.4,0c-0.1,0-0.3,0-0.4,0c0-0.3,0-0.5,0-0.8
		C12.9,14.1,13.2,14.1,13.4,14.2z"/>
	<path class="st0" d="M4.9,15c-0.2,0-0.5,0-0.8,0c0-0.5,0-1,0-1.5c-0.3,0-0.5,0-0.8,0c0,0,0,0,0,0c-0.1-0.2-0.1-0.5,0-0.8
		c0.5-0.1,1-0.1,1.5,0C5,12.7,5,12.9,5,13c0,0.6,0,1.1,0,1.7C5,14.8,5,14.9,4.9,15z"/>
	<path class="st0" d="M1.8,14.2c-0.3,0-0.5,0-0.8,0c0-0.8,0-1.6,0-2.3c0.2-0.2,0.5-0.1,0.8,0C1.9,12.6,1.9,13.4,1.8,14.2
		C1.8,14.2,1.8,14.2,1.8,14.2z"/>
	<path class="st0" d="M3.3,13.4c0,0.3,0,0.5,0,0.8c-0.3,0-0.5,0-0.8,0c0,0,0,0,0,0c-0.1-0.2-0.1-0.5,0-0.8
		C2.8,13.3,3.1,13.3,3.3,13.4z"/>
	<path class="st0" d="M2.6,14.2c0,0.2,0,0.5,0,0.8c-0.1,0-0.2,0-0.4,0c-0.1,0-0.3,0-0.4,0c0-0.3,0-0.5,0-0.8
		C2.1,14.1,2.3,14.1,2.6,14.2z"/>
	<path class="st1" d="M2.6,14.2c-0.3,0-0.5,0-0.8,0c0-0.8,0-1.5,0-2.3c-0.3,0-0.5,0-0.8,0C1,9,1,6.2,1,3.4c0.3,0,0.5,0,0.8,0
		c0-0.8,0-1.6,0-2.3c0.3,0,0.5,0,0.8,0c0,0.2,0,0.5,0,0.8c0.1,0,0.2,0,0.4,0c0.1,0,0.3,0,0.4,0c0-0.3,0-0.5,0-0.8c1,0,2.1,0,3.1,0
		c0,0.2,0,0.5,0,0.8c0.1,0,0.2,0,0.4,0c0.1,0,0.3,0,0.4,0c0-0.3,0-0.5,0-0.8C7.5,1,7.7,1,8,1c0,0.5,0,1,0,1.5c0.3,0,0.5,0,0.8,0
		c0,0.3,0,0.5,0,0.8c0.3,0,0.5,0,0.8,0c0,0.3,0,0.5,0,0.8c0.3,0,0.5,0,0.8,0c0,0.3,0,0.5,0,0.8c0.5,0,1,0,1.5,0c0,0.2,0,0.5,0,0.7
		c0,0,0,0,0,0c0,0,0,0,0,0c0.8,0,1.5,0,2.3,0c0-0.8,0-1.6,0-2.3c0.3,0,0.5,0,0.8,0c0,2.6,0,5.2,0,7.7c-0.3,0-0.5,0-0.8,0
		c0,0.8,0,1.6,0,2.3c-0.3,0-0.5,0-0.8,0c0,0.3,0,0.5,0,0.8c-0.3,0-0.5,0-0.8,0c0-0.5,0-1,0-1.5c0,0,0,0,0,0c0,0,0,0,0,0
		c-0.5,0-1,0-1.5,0c0,0.5,0,1,0,1.5c-0.3,0-0.5,0-0.8,0c0,0.3,0,0.5,0,0.8c-0.3,0-0.5,0-0.8,0c-0.1-0.1-0.1-0.3-0.1-0.4
		c0-0.5,0-0.9,0-1.4c0-0.1,0-0.3-0.1-0.4c-0.9,0-1.8,0-2.7,0c-0.1,0.3,0,0.6-0.1,0.9c0,0.2,0,0.3-0.1,0.5c-0.2,0.2-0.4,0-0.6,0.1
		c-0.1,0.2,0,0.4-0.2,0.6c-0.3,0-0.5,0-0.8,0c0-0.8,0-1.5,0-2.3c0,0,0,0,0,0c0,0,0,0,0,0c-0.5,0-1,0-1.5,0c0,0.3,0,0.5,0,0.8
		c-0.3,0-0.5,0-0.8,0C2.6,13.7,2.6,13.9,2.6,14.2z"/>
	<path class="st0" d="M6.4,14.2c0-0.5,0-1,0-1.5c0.3,0,2.2-0.1,3.1,0c0,0.8,0,1.5,0,2.3c-0.2,0-0.5,0-0.8,0c0-0.5,0-1,0-1.5
		c-0.5,0-1,0-1.5,0c0,0.1,0,0.2,0,0.4c0,0.1,0,0.3,0,0.4C7,14.2,6.7,14.2,6.4,14.2z"/>
	<circle class="st0" cx="6.1" cy="14.6" r="0.5"/>
	<path class="st0" d="M2.6,6.5c0.2,0,0.5,0,0.7,0c0,0,0,0,0,0c0,0,0,0,0,0c0-0.5,0-1,0-1.5c0.5,0,1,0,1.5,0c0,0.1,0,0.2,0,0.4
		c0,0.1,0,0.3,0,0.4c-0.3,0-0.5,0-0.8,0c0,0.1,0,0.3,0,0.4c0,0.1,0,0.3,0,0.4c0.5,0,1,0,1.5,0c0,0.2,0,0.5,0,0.7
		c-0.3,0-2.1,0.1-3.1,0C2.6,7,2.6,6.7,2.6,6.5z"/>
	<path class="st0" d="M2.6,6.4c-0.2,0-0.5,0-0.8,0c0-0.3,0-0.5,0-0.8c0.2,0,0.5,0,0.8,0C2.6,5.9,2.6,6.2,2.6,6.4z"/>
	<path class="st0" d="M5.7,6.4c0-0.2,0-0.5,0-0.8c0.3,0,0.5,0,0.8,0c0,0.2,0,0.5,0,0.8C6.2,6.4,5.9,6.4,5.7,6.4z"/>
	<path class="st2" d="M5.7,4.1c-0.3,0-0.5,0-0.8,0c0-0.2,0-0.5,0-0.8c0.1,0,0.2,0,0.4,0c0.1,0,0.3,0,0.4,0C5.7,3.6,5.7,3.9,5.7,4.1z
		"/>
	<path class="st3" d="M3.3,4.1c-0.3,0-0.5,0-0.8,0c0-0.2,0-0.5,0-0.8c0.1,0,0.2,0,0.4,0c0.1,0,0.3,0,0.4,0C3.3,3.6,3.3,3.9,3.3,4.1z
		"/>
</g>
</svg>
